{"asset": {"version": "2.0"}, "scene": 0, "scenes": [{"nodes": [0]}], "nodes": [{"mesh": 0}], "meshes": [{"primitives": [{"attributes": {"POSITION": 0, "TEXCOORD_0": 1}, "mode": 4}]}], "buffers": [{"byteLength": 72, "uri": "data:application/octet-stream;base64,"}], "bufferViews": [{"buffer": 0, "byteOffset": 0, "byteLength": 36}, {"buffer": 0, "byteOffset": 36, "byteLength": 36}], "accessors": [{"bufferView": 0, "componentType": 5126, "count": 3, "type": "VEC3", "min": [0, 0, 0], "max": [1, 1, 0]}, {"bufferView": 1, "componentType": 5126, "count": 3, "type": "VEC3"}]}
